<svg width="66" height="66" viewBox="0 0 66 66" fill="none" xmlns="http://www.w3.org/2000/svg">
<g clip-path="url(#clip0_13_537)">
<path d="M54.2167 60.5657C54.2167 59.8935 54.5318 59.5574 55.162 59.5574C55.7922 59.5574 56.1073 59.8935 56.1073 60.5657V62.9604C56.1073 63.6326 55.8342 64.2417 55.288 64.7879C54.7419 65.3341 54.0907 65.6071 53.3345 65.6071H13.0026C12.2463 65.6071 11.5951 65.3341 11.049 64.7879C10.5028 64.2417 10.2297 63.6326 10.2297 62.9604V29.0564C10.2297 28.3842 10.5448 28.0481 11.175 28.0481C11.8052 28.0481 12.1203 28.3842 12.1203 29.0564V62.9604C12.1203 63.4645 12.4144 63.7166 13.0026 63.7166H53.3345C53.9226 63.7166 54.2167 63.4645 54.2167 62.9604V60.5657ZM53.3345 1.0761C54.0907 1.0761 54.7419 1.34918 55.288 1.89534C55.8342 2.44151 56.1073 3.05069 56.1073 3.72289V56.7845C56.1073 57.3727 55.7922 57.6668 55.162 57.6668C54.5318 57.6668 54.2167 57.3727 54.2167 56.7845V3.72289C54.2167 3.21873 53.9226 2.96666 53.3345 2.96666H13.0026C12.4144 2.96666 12.1203 3.21873 12.1203 3.72289V25.2752C12.1203 25.8634 11.8052 26.1575 11.175 26.1575C10.5448 26.1575 10.2297 25.8634 10.2297 25.2752V3.72289C10.2297 3.05069 10.5028 2.44151 11.049 1.89534C11.5951 1.34918 12.2463 1.0761 13.0026 1.0761H53.3345ZM18.2961 59.8094C18.2961 60.4816 17.981 60.8177 17.3508 60.8177C16.7207 60.8177 16.4056 60.4816 16.4056 59.8094V6.11759C16.4056 5.52942 16.7207 5.23533 17.3508 5.23533C17.981 5.23533 18.2961 5.52942 18.2961 6.11759V59.8094ZM43.3775 29.3084H28.127C27.5388 29.3084 27.0347 29.0984 26.6146 28.6782C26.1944 28.2581 25.9844 27.754 25.9844 27.1658V17.713C25.9844 17.1248 26.1944 16.6207 26.6146 16.2006C27.0347 15.7804 27.5388 15.5704 28.127 15.5704H43.3775C43.9657 15.5704 44.4698 15.7804 44.89 16.2006C45.3101 16.6207 45.5201 17.1248 45.5201 17.713V27.1658C45.5201 27.754 45.3101 28.2581 44.89 28.6782C44.4698 29.0984 43.9657 29.3084 43.3775 29.3084ZM27.8749 27.1658C27.8749 27.3339 27.959 27.4179 28.127 27.4179H43.3775C43.5456 27.4179 43.6296 27.3339 43.6296 27.1658V17.713C43.6296 17.545 43.5456 17.4609 43.3775 17.4609H28.127C27.959 17.4609 27.8749 17.545 27.8749 17.713V27.1658ZM30.8998 21.3681C30.3117 21.3681 30.0176 21.053 30.0176 20.4228C30.0176 19.7926 30.3117 19.4775 30.8998 19.4775H40.4787C41.1509 19.4775 41.487 19.7926 41.487 20.4228C41.487 21.053 41.1509 21.3681 40.4787 21.3681H30.8998ZM30.8998 25.0232C30.3117 25.0232 30.0176 24.7081 30.0176 24.0779C30.0176 23.4477 30.3117 23.1326 30.8998 23.1326H40.4787C41.1509 23.1326 41.487 23.4477 41.487 24.0779C41.487 24.7081 41.1509 25.0232 40.4787 25.0232H30.8998Z" fill="#004A80"/>
</g>
<defs>
<clipPath id="clip0_13_537">
<rect width="65.2873" height="65.2873" fill="white" transform="matrix(1 0 0 -1 0.524902 65.7332)"/>
</clipPath>
</defs>
</svg>
