<svg width="66" height="66" viewBox="0 0 66 66" fill="none" xmlns="http://www.w3.org/2000/svg">
<g clip-path="url(#clip0_13_542)">
<path d="M64.0549 45.1891C64.8951 45.1891 65.3152 45.6092 65.3152 46.4495V50.2306C65.3152 51.2389 64.9371 52.1212 64.1809 52.8774C63.4247 53.6336 62.5424 54.0117 61.5341 54.0117H57.753V61.826C57.753 62.8343 57.3749 63.7166 56.6187 64.4728C55.8624 65.229 54.9802 65.6071 53.9719 65.6071H38.9734C37.8811 65.6071 36.9779 65.229 36.2636 64.4728C35.5494 63.7166 35.1923 62.8343 35.1923 61.826V54.0117H4.5653C3.557 54.0117 2.67474 53.6336 1.91851 52.8774C1.16229 52.1212 0.78418 51.2389 0.78418 50.2306V46.4495C0.78418 45.6092 1.2043 45.1891 2.04455 45.1891H3.30492V4.85722C3.30492 3.84892 3.68304 2.96666 4.43926 2.21044C5.19548 1.45422 6.07774 1.0761 7.08604 1.0761H59.0134C60.0217 1.0761 60.9039 1.45422 61.6601 2.21044C62.4164 2.96666 62.7945 3.84892 62.7945 4.85722V45.1891H64.0549ZM57.753 45.1891H60.2737V42.6684H57.753V45.1891ZM7.08604 3.59685C6.24579 3.59685 5.82567 4.01697 5.82567 4.85722V6.11759H60.2737V4.85722C60.2737 4.01697 59.8536 3.59685 59.0134 3.59685H7.08604ZM5.82567 42.6684V45.1891H25.4875C26.3277 45.1891 26.7478 45.6092 26.7478 46.4495H35.1923V42.6684H18.4294C17.5891 42.6684 17.169 42.2483 17.169 41.408C17.169 40.5678 17.5891 40.1476 18.4294 40.1476H35.1923V31.5771C35.1923 30.9889 35.3184 30.4428 35.5704 29.9386L30.1508 24.519V26.5356C30.1508 27.3759 29.7307 27.796 28.8905 27.796C28.0502 27.796 27.6301 27.3759 27.6301 26.5356V21.4941C27.6301 20.6539 28.0502 20.2338 28.8905 20.2338H33.932C34.7722 20.2338 35.1923 20.6539 35.1923 21.4941C35.1923 22.3344 34.7722 22.7545 33.932 22.7545H31.9154L37.335 28.1741C37.8391 27.922 38.3853 27.796 38.9734 27.796H53.9719C54.9802 27.796 55.8624 28.1741 56.6187 28.9303C57.3749 29.6865 57.753 30.5688 57.753 31.5771V40.1476H60.2737V8.63834H5.82567V40.1476H7.08604C7.92629 40.1476 8.34641 40.5678 8.34641 41.408C8.34641 42.2483 7.92629 42.6684 7.08604 42.6684H5.82567ZM4.5653 51.491H35.1923V48.9702H26.7478C25.7395 48.9702 25.0253 48.5501 24.6052 47.7099H3.30492V50.2306C3.30492 51.0709 3.72505 51.491 4.5653 51.491ZM55.2322 61.826V31.5771C55.2322 30.7369 54.8121 30.3167 53.9719 30.3167H39.4776L45.2753 36.1144V34.0978C45.2753 33.2576 45.6954 32.8375 46.5357 32.8375C47.3759 32.8375 47.7961 33.2576 47.7961 34.0978V39.1393C47.7961 39.9796 47.3759 40.3997 46.5357 40.3997H41.4942C40.6539 40.3997 40.2338 39.9796 40.2338 39.1393C40.2338 38.2991 40.6539 37.879 41.4942 37.879H43.5108L37.7131 32.0813V61.826C37.7131 62.6663 38.1332 63.0864 38.9734 63.0864H53.9719C54.8121 63.0864 55.2322 62.6663 55.2322 61.826ZM62.7945 50.2306V47.7099H57.753V51.491H61.5341C62.3744 51.491 62.7945 51.0709 62.7945 50.2306ZM45.1493 60.5657C45.1493 60.5657 45.1493 60.3556 45.1493 59.9355C45.1493 59.5153 45.5694 59.3053 46.4096 59.3053C47.2499 59.3053 47.67 59.7254 47.67 60.5657C47.67 61.4059 47.2499 61.826 46.4096 61.826C45.5694 61.826 45.1493 61.4059 45.1493 60.5657ZM49.5606 13.6798C48.7203 13.6798 48.3002 13.2597 48.3002 12.4195C48.3002 11.5792 48.7203 11.1591 49.5606 11.1591H56.4926C57.3329 11.1591 57.753 11.5792 57.753 12.4195C57.753 13.2597 57.3329 13.6798 56.4926 13.6798H49.5606ZM45.1493 12.4195C45.1493 12.4195 45.1493 12.6295 45.1493 13.0496C45.1493 13.4698 44.7291 13.6798 43.8889 13.6798C43.0487 13.6798 42.6285 13.2597 42.6285 12.4195C42.6285 11.5792 43.0487 11.1591 43.8889 11.1591C44.7291 11.1591 45.1493 11.5792 45.1493 12.4195ZM11.4973 41.408C11.4973 41.408 11.4973 41.1979 11.4973 40.7778C11.4973 40.3577 11.9175 40.1476 12.7577 40.1476C13.598 40.1476 14.0181 40.5678 14.0181 41.408C14.0181 42.2483 13.598 42.6684 12.7577 42.6684C11.9175 42.6684 11.4973 42.2483 11.4973 41.408Z" fill="#28A745"/>
</g>
<defs>
<clipPath id="clip0_13_542">
<rect width="65.2873" height="65.2873" fill="white" transform="matrix(1 0 0 -1 0.40625 65.7332)"/>
</clipPath>
</defs>
</svg>
