<svg width="66" height="66" viewBox="0 0 66 66" fill="none" xmlns="http://www.w3.org/2000/svg">
<path d="M51.0802 49.4744V48.4661H57.13V60.5657C57.13 61.658 56.7308 62.6033 55.9326 63.4015C55.1344 64.1997 54.1891 64.5988 53.0968 64.5988H43.0138H40.9972H30.9142C29.8219 64.5988 28.8766 64.1997 28.0784 63.4015C27.2801 62.6033 26.881 61.658 26.881 60.5657V50.4827V48.4661V38.3831C26.881 37.2908 27.2801 36.3455 28.0784 35.5473C28.8766 34.749 29.8219 34.3499 30.9142 34.3499H43.0138V38.5091C43.854 38.7612 44.5682 39.2444 45.1564 39.9586C45.7446 40.6728 46.0387 41.492 46.0387 42.4163C46.0387 43.3406 45.7446 44.1598 45.1564 44.874C44.5682 45.5882 43.854 46.0714 43.0138 46.3235V48.4661H47.047V49.4744C47.047 50.0626 47.236 50.5457 47.6141 50.9238C47.9923 51.3019 48.4754 51.491 49.0636 51.491C49.6517 51.491 50.1349 51.3019 50.513 50.9238C50.8911 50.5457 51.0802 50.0626 51.0802 49.4744ZM28.8976 38.3831V48.4661H31.0403C31.2923 47.6258 31.7755 46.9116 32.4897 46.3235C33.2039 45.7353 34.0231 45.4412 34.9474 45.4412C35.8717 45.4412 36.6909 45.7353 37.4051 46.3235C38.1193 46.9116 38.6025 47.6258 38.8546 48.4661H40.9972V44.4329H42.0055C42.5937 44.4329 43.0768 44.2438 43.4549 43.8657C43.833 43.4876 44.0221 43.0045 44.0221 42.4163C44.0221 41.8281 43.833 41.345 43.4549 40.9669C43.0768 40.5888 42.5937 40.3997 42.0055 40.3997H40.9972V36.3665H30.9142C30.326 36.3665 29.8429 36.5556 29.4648 36.9337C29.0867 37.3118 28.8976 37.7949 28.8976 38.3831ZM30.9142 62.5823H40.9972V60.4396C40.409 60.2716 39.8839 59.9985 39.4217 59.6204C38.9596 59.2423 38.6025 58.7801 38.3504 58.234C38.0983 57.6878 37.9723 57.1206 37.9723 56.5325C37.9723 55.6082 38.2664 54.789 38.8546 54.0747C39.4427 53.3605 40.1569 52.8774 40.9972 52.6253V50.4827H36.964V49.4744C36.964 48.8862 36.7749 48.4031 36.3968 48.025C36.0187 47.6468 35.5356 47.4578 34.9474 47.4578C34.3592 47.4578 33.8761 47.6468 33.498 48.025C33.1199 48.4031 32.9308 48.8862 32.9308 49.4744V50.4827H28.8976V60.5657C28.8976 61.1538 29.0867 61.637 29.4648 62.0151C29.8429 62.3932 30.326 62.5823 30.9142 62.5823ZM52.9707 50.4827C52.7186 51.3229 52.2355 52.0371 51.5213 52.6253C50.8071 53.2135 49.9878 53.5076 49.0636 53.5076C48.1393 53.5076 47.3201 53.2135 46.6058 52.6253C45.8916 52.0371 45.4085 51.3229 45.1564 50.4827H43.0138V54.5159H42.0055C41.4173 54.5159 40.9342 54.7049 40.5561 55.083C40.1779 55.4612 39.9889 55.9443 39.9889 56.5325C39.9889 57.1206 40.1779 57.6038 40.5561 57.9819C40.9342 58.36 41.4173 58.5491 42.0055 58.5491H43.0138V62.5823H53.0968C53.6849 62.5823 54.1681 62.3932 54.5462 62.0151C54.9243 61.637 55.1134 61.1538 55.1134 60.5657V50.4827H52.9707ZM44.0221 17.2089V18.2172H37.9723V6.11759C37.9723 5.02526 38.3714 4.07999 39.1697 3.28175C39.9679 2.48352 40.9132 2.0844 42.0055 2.0844H54.1051V6.11759C55.1974 6.11759 56.1427 6.5167 56.9409 7.31494C57.7391 8.11318 58.1382 9.05846 58.1382 10.1508C58.1382 11.2431 57.7391 12.1884 56.9409 12.9866C56.1427 13.7849 55.1974 14.184 54.1051 14.184V18.2172H48.0553V17.2089C48.0553 16.6207 47.8662 16.1375 47.4881 15.7594C47.11 15.3813 46.6269 15.1923 46.0387 15.1923C45.4505 15.1923 44.9674 15.3813 44.5892 15.7594C44.2111 16.1375 44.0221 16.6207 44.0221 17.2089ZM42.1315 16.2006C42.3836 15.3603 42.8667 14.6461 43.581 14.0579C44.2952 13.4698 45.1144 13.1757 46.0387 13.1757C46.9629 13.1757 47.7822 13.4698 48.4964 14.0579C49.2106 14.6461 49.6938 15.3603 49.9458 16.2006H52.0885V12.1674H54.1051C54.6932 12.1674 55.1764 11.9783 55.5545 11.6002C55.9326 11.2221 56.1217 10.739 56.1217 10.1508C56.1217 9.5626 55.9326 9.07946 55.5545 8.70135C55.1764 8.32324 54.6932 8.13418 54.1051 8.13418H52.0885V4.10099H42.0055C41.4173 4.10099 40.9342 4.29005 40.5561 4.66816C40.1779 5.04627 39.9889 5.52942 39.9889 6.11759V16.2006H42.1315ZM51.9624 25.1492C51.9624 25.1492 52.1095 25.0022 52.4036 24.7081C52.6976 24.414 53.2648 24.2669 54.1051 24.2669C54.9453 24.2669 55.6595 24.561 56.2477 25.1492C56.8359 25.7374 57.13 26.4516 57.13 27.2918V27.4179C57.13 28.2581 56.8359 28.9723 56.2477 29.5605L55.3654 30.4428C55.1974 30.6108 55.1134 30.8629 55.1134 31.199V32.3333H53.0968V31.199C53.0968 30.3587 53.3908 29.6445 53.979 29.0564L54.8613 28.1741C55.0293 28.006 55.1134 27.754 55.1134 27.4179V27.2918C55.1134 26.6196 54.7773 26.2835 54.1051 26.2835C53.4329 26.2835 53.0968 26.6196 53.0968 27.2918V28.3001H51.0802V27.2918C51.0802 26.4516 51.3743 25.7374 51.9624 25.1492ZM53.0968 34.3499H55.1134V36.3665H53.0968V34.3499ZM46.984 23.1956C46.984 23.1956 47.4776 22.702 48.4649 21.7147C49.4522 20.7274 51.3322 20.2338 54.1051 20.2338C56.8779 20.2338 59.2516 21.221 61.2262 23.1956C63.2007 25.1702 64.188 27.5439 64.188 30.3167C64.188 32.9215 63.3268 35.1692 61.6043 37.0597C59.8818 38.9503 57.7181 40.0216 55.1134 40.2737L50.0719 44.5589V39.5174C48.2233 38.7612 46.7529 37.5429 45.6606 35.8624C44.5682 34.1819 44.0221 32.3333 44.0221 30.3167C44.0221 27.5439 45.0094 25.1702 46.984 23.1956ZM54.7352 38.3831C56.8359 38.2151 58.6004 37.3538 60.0288 35.7993C61.4572 34.2449 62.1714 32.4174 62.1714 30.3167C62.1714 28.1321 61.3732 26.2415 59.7767 24.6451C58.1803 23.0486 56.2897 22.2503 54.1051 22.2503C51.9204 22.2503 50.0299 23.0486 48.4334 24.6451C46.8369 26.2415 46.0387 28.1321 46.0387 30.3167C46.0387 31.157 46.1647 31.9762 46.4168 32.7745C46.6689 33.5727 47.026 34.3079 47.4881 34.9801C47.9502 35.6523 48.5174 36.2405 49.1896 36.7446C49.8618 37.2488 50.618 37.6269 51.4583 37.879L52.0885 38.131V40.2737L54.3571 38.3831H54.7352ZM45.0304 59.5574H47.047V61.574H45.0304V59.5574ZM49.0636 59.5574H51.0802V61.574H49.0636V59.5574ZM29.9059 52.4993H31.9225V54.5159H29.9059V52.4993ZM29.9059 56.5325H31.9225V58.5491H29.9059V56.5325ZM42.0055 6.11759H44.0221V8.13418H42.0055V6.11759ZM46.0387 6.11759H48.0553V8.13418H46.0387V6.11759ZM30.9142 38.3831H32.9308V40.3997H30.9142V38.3831ZM34.9474 38.3831H36.964V40.3997H34.9474V38.3831ZM33.9391 17.587C33.9391 18.4272 33.75 19.2255 33.3719 19.9817C32.9938 20.7379 32.4477 21.3471 31.7335 21.8092C31.0192 22.2714 30.242 22.5444 29.4018 22.6285L23.8561 23.1326V60.0615C23.8561 61.3219 23.415 62.3932 22.5327 63.2755C21.6505 64.1577 20.5792 64.5988 19.3188 64.5988C17.8904 64.5988 16.714 64.0107 15.7898 62.8343C14.8655 64.0107 13.6891 64.5988 12.2607 64.5988C11.0003 64.5988 9.92902 64.1577 9.04676 63.2755C8.1645 62.3932 7.72337 61.3219 7.72337 60.0615V40.3997V39.3914V35.3582H6.71507C5.28665 35.3582 4.0893 34.8751 3.12301 33.9088C2.15673 32.9425 1.67358 31.7452 1.67358 30.3167V27.2918C1.67358 24.519 2.55584 22.1033 4.32037 20.0447C6.08489 17.9861 8.31154 16.7467 11.0003 16.3266C9.48789 14.8982 8.73167 13.1757 8.73167 11.1591C8.73167 9.22651 9.42487 7.56702 10.8113 6.18061C12.1977 4.7942 13.8572 4.10099 15.7898 4.10099C17.7223 4.10099 19.3818 4.7942 20.7682 6.18061C22.1546 7.56702 22.8478 9.22651 22.8478 11.1591C22.8478 12.9236 22.2597 14.4781 21.0833 15.8225L26.881 15.3183V5.61344C26.881 4.60514 27.2171 3.76489 27.8893 3.09269C28.5615 2.4205 29.4018 2.0844 30.4101 2.0844C31.4184 2.0844 32.2586 2.4205 32.9308 3.09269C33.603 3.76489 33.9391 4.60514 33.9391 5.61344V17.587ZM12.1977 7.56702C12.1977 7.56702 11.9561 7.80859 11.473 8.29173C10.9898 8.77487 10.7483 9.73066 10.7483 11.1591C10.7483 12.5875 11.2314 13.7849 12.1977 14.7511C13.164 15.7174 14.3613 16.2006 15.7898 16.2006C17.2182 16.2006 18.4155 15.7174 19.3818 14.7511C20.3481 13.7849 20.8312 12.5875 20.8312 11.1591C20.8312 9.73066 20.3481 8.5333 19.3818 7.56702C18.4155 6.60073 17.2182 6.11759 15.7898 6.11759C14.3613 6.11759 13.164 6.60073 12.1977 7.56702ZM14.2773 35.3582H9.73996V38.3831H17.8063V31.8292V26.2835H9.73996V28.3001H14.2773C15.2856 28.3001 16.1258 28.6362 16.798 29.3084C17.4702 29.9806 17.8063 30.8209 17.8063 31.8292C17.8063 32.8375 17.4702 33.6777 16.798 34.3499C16.1258 35.0221 15.2856 35.3582 14.2773 35.3582ZM10.4962 61.826C10.4962 61.826 10.6222 61.9521 10.8743 62.2041C11.1264 62.4562 11.5885 62.5823 12.2607 62.5823C12.9329 62.5823 13.5211 62.3302 14.0252 61.826C14.5294 61.3219 14.7815 60.7337 14.7815 60.0615V40.3997H9.73996V60.0615C9.73996 60.7337 9.99204 61.3219 10.4962 61.826ZM21.8395 21.3681L29.1497 20.6119C29.9899 20.5278 30.6621 20.1917 31.1663 19.6036C31.6704 19.0154 31.9225 18.3432 31.9225 17.587V5.61344C31.9225 4.60514 31.4184 4.10099 30.4101 4.10099C29.4018 4.10099 28.8976 4.60514 28.8976 5.61344V17.0828L16.9241 18.2172H15.7898H12.7649C10.2441 18.2172 8.10148 19.0994 6.33696 20.8639C4.57244 22.6285 3.69018 24.7711 3.69018 27.2918V30.3167C3.69018 31.157 3.98427 31.8712 4.57244 32.4594C5.16061 33.0475 5.87482 33.3416 6.71507 33.3416H14.2773C15.2856 33.3416 15.7898 32.8375 15.7898 31.8292C15.7898 30.8209 15.2856 30.3167 14.2773 30.3167H5.70677V28.3001H7.72337V24.2669H19.8229V40.3997H16.798V60.0615C16.798 60.7337 17.0501 61.3219 17.5543 61.826C18.0584 62.3302 18.6466 62.5823 19.3188 62.5823C19.991 62.5823 20.5792 62.3302 21.0833 61.826C21.5875 61.3219 21.8395 60.7337 21.8395 60.0615V21.3681Z" fill="#FF6B00"/>
</svg>
